HIERARCHY
ROOT Hips
{
	OFFSET 0.000000 0.000000 0.000000
	CHANNELS 6 Xposition Yposition Zposition Zrotation Yrotation Xrotation 
	JOINT LHipJoint
	{
		OFFSET 0.000000 0.000000 0.000000
		CHANNELS 3 Zrotation Yrotation Xrotation
		JOINT LeftUpLeg
		{
			OFFSET 1.363060 -1.794630 0.839290
			CHANNELS 3 Zrotation Yrotation Xrotation
			JOINT LeftLeg
			{
				OFFSET 2.448110 -6.726130 0.000000
				CHANNELS 3 Zrotation Yrotation Xrotation
				JOINT LeftFoot
				{
					OFFSET 2.562200 -7.039590 0.000000
					CHANNELS 3 Zrotation Yrotation Xrotation
					JOINT LeftToeBase
					{
						OFFSET 0.157640 -0.433110 2.322550
						CHANNELS 3 Zrotation Yrotation Xrotation
						End Site
						{
							OFFSET 0.000000 0.000000 0.000000
						}
					}
				}
			}
		}
	}
	JOINT RHipJoint
	{
		OFFSET 0.000000 0.000000 0.000000
		CHANNELS 3 Zrotation Yrotation Xrotation
		JOINT RightUpLeg
		{
			OFFSET -1.305520 -1.794630 0.839290
			CHANNELS 3 Zrotation Yrotation Xrotation
			JOINT RightLeg
			{
				OFFSET -2.542530 -6.985550 0.000000
				CHANNELS 3 Zrotation Yrotation Xrotation
				JOINT RightFoot
				{
					OFFSET -2.568260 -7.056230 0.000000
					CHANNELS 3 Zrotation Yrotation Xrotation
					JOINT RightToeBase
					{
						OFFSET -0.164730 -0.452590 2.363150
						CHANNELS 3 Zrotation Yrotation Xrotation
						End Site
						{
							OFFSET 0.000000 0.000000 0.000000
						}
					}
				}
			}
		}
	}
}
MOTION
Frames: 14
Frame Time: 0.008333
3.060174 16.393549 0.263686 3.775268 44.274898 17.149541 -8.887825 -0.403978 0.134807 -2.141267 9.231257 -40.108415 -1.897699 1.179550 24.055999 0.606897 3.164488 9.144584 1.025200 -0.000001 -46.671300 12.370248 -1.770030 0.313824 -0.254822 6.146394 -11.410075 -0.427604 -3.570542 53.653991 -0.886326 -3.034021 -9.397148 0.081400 -0.000001 -51.861700
3.203364 16.398839 0.299597 4.044512 42.864365 17.171583 -8.852965 -0.348209 -0.096003 -2.643767 9.741974 -39.823915 -1.878801 1.257906 25.659025 0.754046 4.328607 7.812449 1.256400 -0.000000 -46.601300 12.568347 -1.607441 0.254948 -0.837089 5.795134 -13.087084 -0.707206 -3.738554 56.633259 -1.400876 -6.276733 -10.414447 0.236400 0.000000 -42.055000
3.342691 16.412831 0.332452 4.243862 41.483216 17.119126 -8.828097 -0.300963 -0.295802 -2.994338 9.995561 -39.277275 -1.847962 1.303590 26.950054 0.920111 5.593129 6.335610 1.450400 0.000000 -46.859800 12.725443 -1.428008 0.173284 -1.279147 5.487094 -14.668621 -0.932690 -3.892919 59.244644 -1.889841 -9.199014 -11.581264 0.486500 0.000001 -32.261400
3.479423 16.434691 0.362762 4.375380 40.135343 16.994815 -8.817620 -0.260919 -0.465302 -3.205263 10.021396 -38.479697 -1.805214 1.319602 27.921836 1.103073 6.923283 4.832526 1.595600 -0.000000 -47.316300 12.839443 -1.243814 0.072538 -1.586662 5.215324 -16.140618 -1.111379 -4.031258 61.438927 -2.314365 -11.645000 -12.666068 0.790600 -0.000000 -24.341599
3.614719 16.463272 0.391349 4.440137 38.823622 16.803199 -8.825455 -0.226272 -0.606091 -3.292839 9.866428 -37.459681 -1.751134 1.310811 28.581914 1.297778 8.279922 3.412192 1.692100 0.000000 -47.844400 12.909243 -1.066001 -0.043153 -1.761824 4.967908 -17.501418 -1.246713 -4.151604 63.215432 -2.640384 -13.482088 -13.539354 1.084299 -0.000000 -19.019700
3.749276 16.497171 0.419490 4.445913 37.550189 16.553737 -8.853226 -0.193744 -0.721440 -3.281402 9.588201 -36.254453 -1.687556 1.283015 28.949329 1.496174 9.620881 2.163764 1.750500 0.000001 -48.315100 12.936926 -0.902899 -0.171586 -1.812332 4.719100 -18.761714 -1.335851 -4.253963 64.604585 -2.843610 -14.603553 -14.222605 1.326200 -0.000001 -15.719899
3.883549 16.535026 0.448559 4.399886 36.316576 16.260019 -8.902444 -0.160284 -0.814382 -3.194610 9.250843 -34.913062 -1.617031 1.242293 29.052484 1.688320 10.900798 1.154924 1.788500 -0.000000 -48.677500 12.925200 -0.761026 -0.306174 -1.745682 4.449550 -19.940885 -1.379466 -4.337488 65.633455 -2.912849 -14.965599 -14.701386 1.477000 0.000000 -14.203600
4.017518 16.575493 0.480051 4.316010 35.121454 15.941524 -8.971106 -0.122006 -0.890557 -3.061184 8.918733 -33.484969 -1.544133 1.194349 28.926554 1.863729 12.073308 0.418120 1.824200 -0.000000 -48.882900 12.880756 -0.642445 -0.439801 -1.580078 4.144369 -21.062673 -1.380283 -4.402158 66.331580 -2.848146 -14.577029 -14.959219 1.511700 -0.000000 -14.205600
4.150791 16.617387 0.515399 4.208431 33.963683 15.620410 -9.057009 -0.075935 -0.954433 -2.905655 8.651673 -32.024065 -1.474048 1.143691 28.611099 2.012619 13.092215 -0.041784 1.871600 0.000001 -48.953800 12.810558 -0.547452 -0.561270 -1.334557 3.801337 -22.155151 -1.345063 -4.447574 66.725044 -2.661068 -13.508153 -14.940461 1.416000 0.000000 -15.792800
4.282735 16.659814 0.555768 4.092801 32.839733 15.318497 -9.155765 -0.019393 -1.011924 -2.750549 8.499043 -30.576172 -1.412734 1.093687 28.146464 2.127032 13.915692 -0.248671 1.936100 -0.000000 -48.930800 12.723162 -0.472374 -0.661105 -1.031801 3.425185 -23.242513 -1.283039 -4.473704 66.838056 -2.374206 -11.881703 -14.591090 1.200899 -0.000000 -19.103800
4.412516 16.702081 0.601973 3.983107 31.747098 15.054532 -9.262663 0.049304 -1.067662 -2.613267 8.494834 -29.180418 -1.365594 1.046293 27.572241 2.201619 14.510562 -0.245224 2.013500 0.000000 -48.886900 12.626311 -0.411623 -0.731231 -0.691868 3.025523 -24.345352 -1.203871 -4.480829 66.694336 -2.020745 -9.865213 -13.894016 0.907900 0.000000 -24.160900
4.539218 16.743724 0.654480 3.892167 30.684210 14.841199 -9.372792 0.131071 -1.124772 -2.505810 8.654881 -27.865053 -1.336964 1.002347 26.926359 2.233903 14.855451 -0.086824 2.091800 -0.000000 -48.881800 12.526270 -0.358580 -0.767984 -0.329149 2.609893 -25.478241 -1.113360 -4.470686 66.325830 -1.639929 -7.645460 -12.933310 0.603500 0.000000 -30.363500
4.662092 16.784460 0.713290 3.827678 29.649504 14.684156 -9.481532 0.225985 -1.185234 -2.433479 8.976103 -26.645050 -1.329386 0.962178 26.241903 2.224476 14.944665 0.170936 2.156000 0.000001 -48.981300 12.426940 -0.306495 -0.772830 0.049500 2.186587 -26.645651 -1.013751 -4.446080 65.771893 -1.269769 -5.409435 -11.864111 0.347500 -0.000000 -36.718900
4.780542 16.824210 0.778018 3.792698 28.641983 14.583163 -9.585099 0.333161 -1.248869 -2.395974 9.436549 -25.525399 -1.343195 0.925706 25.546881 2.177026 14.790342 0.478126 2.192700 0.000000 -49.227800 12.329698 -0.250144 -0.749604 0.442627 1.767836 -27.843664 -0.906061 -4.410120 65.073694 -0.940316 -3.328927 -10.848656 0.168500 -0.000000 -42.287099
